<svg xmlns="http://www.w3.org/2000/svg" viewBox="0 0 794 1123" width="794" height="1123">
  <!-- Clean gold double-line border with dots only. No arches, no shapes. -->

  <!-- Outer gold line -->
  <rect x="22" y="22" width="750" height="1079" fill="none" stroke="#b8860b" stroke-width="2" rx="2"/>

  <!-- Inner thin gold line -->
  <rect x="30" y="30" width="734" height="1063" fill="none" stroke="#c89455" stroke-width="0.7" rx="1"/>

  <!-- Top dots -->
  <circle cx="150" cy="22" r="3.5" fill="none" stroke="#c89455" stroke-width="0.8"/><circle cx="150" cy="22" r="1.5" fill="#c89455" opacity="0.5"/>
  <circle cx="270" cy="22" r="3.5" fill="none" stroke="#c89455" stroke-width="0.8"/><circle cx="270" cy="22" r="1.5" fill="#c89455" opacity="0.5"/>
  <circle cx="397" cy="22" r="3.5" fill="none" stroke="#c89455" stroke-width="0.8"/><circle cx="397" cy="22" r="1.5" fill="#c89455" opacity="0.5"/>
  <circle cx="524" cy="22" r="3.5" fill="none" stroke="#c89455" stroke-width="0.8"/><circle cx="524" cy="22" r="1.5" fill="#c89455" opacity="0.5"/>
  <circle cx="644" cy="22" r="3.5" fill="none" stroke="#c89455" stroke-width="0.8"/><circle cx="644" cy="22" r="1.5" fill="#c89455" opacity="0.5"/>

  <!-- Bottom dots -->
  <circle cx="150" cy="1101" r="3.5" fill="none" stroke="#c89455" stroke-width="0.8"/><circle cx="150" cy="1101" r="1.5" fill="#c89455" opacity="0.5"/>
  <circle cx="270" cy="1101" r="3.5" fill="none" stroke="#c89455" stroke-width="0.8"/><circle cx="270" cy="1101" r="1.5" fill="#c89455" opacity="0.5"/>
  <circle cx="397" cy="1101" r="3.5" fill="none" stroke="#c89455" stroke-width="0.8"/><circle cx="397" cy="1101" r="1.5" fill="#c89455" opacity="0.5"/>
  <circle cx="524" cy="1101" r="3.5" fill="none" stroke="#c89455" stroke-width="0.8"/><circle cx="524" cy="1101" r="1.5" fill="#c89455" opacity="0.5"/>
  <circle cx="644" cy="1101" r="3.5" fill="none" stroke="#c89455" stroke-width="0.8"/><circle cx="644" cy="1101" r="1.5" fill="#c89455" opacity="0.5"/>

  <!-- Left dots -->
  <circle cx="22" cy="200" r="3.5" fill="none" stroke="#c89455" stroke-width="0.8"/><circle cx="22" cy="200" r="1.5" fill="#c89455" opacity="0.5"/>
  <circle cx="22" cy="380" r="3.5" fill="none" stroke="#c89455" stroke-width="0.8"/><circle cx="22" cy="380" r="1.5" fill="#c89455" opacity="0.5"/>
  <circle cx="22" cy="562" r="3.5" fill="none" stroke="#c89455" stroke-width="0.8"/><circle cx="22" cy="562" r="1.5" fill="#c89455" opacity="0.5"/>
  <circle cx="22" cy="742" r="3.5" fill="none" stroke="#c89455" stroke-width="0.8"/><circle cx="22" cy="742" r="1.5" fill="#c89455" opacity="0.5"/>
  <circle cx="22" cy="922" r="3.5" fill="none" stroke="#c89455" stroke-width="0.8"/><circle cx="22" cy="922" r="1.5" fill="#c89455" opacity="0.5"/>

  <!-- Right dots -->
  <circle cx="772" cy="200" r="3.5" fill="none" stroke="#c89455" stroke-width="0.8"/><circle cx="772" cy="200" r="1.5" fill="#c89455" opacity="0.5"/>
  <circle cx="772" cy="380" r="3.5" fill="none" stroke="#c89455" stroke-width="0.8"/><circle cx="772" cy="380" r="1.5" fill="#c89455" opacity="0.5"/>
  <circle cx="772" cy="562" r="3.5" fill="none" stroke="#c89455" stroke-width="0.8"/><circle cx="772" cy="562" r="1.5" fill="#c89455" opacity="0.5"/>
  <circle cx="772" cy="742" r="3.5" fill="none" stroke="#c89455" stroke-width="0.8"/><circle cx="772" cy="742" r="1.5" fill="#c89455" opacity="0.5"/>
  <circle cx="772" cy="922" r="3.5" fill="none" stroke="#c89455" stroke-width="0.8"/><circle cx="772" cy="922" r="1.5" fill="#c89455" opacity="0.5"/>
</svg>
